<svg xmlns="http://www.w3.org/2000/svg" viewBox="0 0 179 97.5"><defs><style>.cls-1{fill:#fff;}</style></defs><g id="Camada_2" data-name="Camada 2"><g id="Camada_1-2" data-name="Camada 1"><path class="cls-1" d="M52.4,23.9l-1,6.6H47L51.9.7h5.8l5.2,29.8H58.3l-1-6.6Zm2.3-16L53,19.8h3.5Z"/><polygon class="cls-1" points="78.4 30.5 78.4 9.9 74.1 30.5 72.1 30.5 67.6 9.9 67.6 30.5 63.5 30.5 63.5 0.7 69.4 0.7 73.1 18.8 76.5 0.7 82.6 0.7 82.6 30.5 78.4 30.5"/><path class="cls-1" d="M88.8,23.9l-1,6.6H83.4L88.3.7h5.8l5.2,29.8H94.7l-1-6.6Zm2.3-16L89.4,19.8h3.5Z"/><polygon class="cls-1" points="113.1 30.5 99.8 30.5 99.8 26.3 108.4 4.9 100.5 4.9 100.5 0.7 113.1 0.7 113.1 4.9 104.6 26.3 113.1 26.3 113.1 30.5"/><path class="cls-1" d="M127.6,20.8c0,4.4-.4,6-1.8,7.8a6.83,6.83,0,0,1-10.4,0c-1.4-1.7-1.8-3.4-1.8-7.8V10.4c0-4.4.4-6,1.8-7.8a6.83,6.83,0,0,1,10.4,0c1.4,1.7,1.8,3.3,1.8,7.8Zm-9.6-.5a20.32,20.32,0,0,0,.3,4.8,2.3,2.3,0,0,0,4.5-.3,33.1,33.1,0,0,0,.2-4.5V10.9a19.71,19.71,0,0,0-.3-4.8,2.31,2.31,0,0,0-2.2-1.7,2.26,2.26,0,0,0-2.3,2,34.3,34.3,0,0,0-.2,4.5Z"/><polygon class="cls-1" points="139.4 30.5 132.9 12.1 132.9 30.5 128.8 30.5 128.8 0.7 133.3 0.7 139.4 18.4 139.4 0.7 143.5 0.7 143.5 30.5 139.4 30.5"/><path class="cls-1" d="M149.8,23.9l-1,6.6h-4.4L149.3.7h5.8l5.2,29.8h-4.6l-1-6.6Zm2.3-16-1.7,11.9h3.5Z"/><path class="cls-1" d="M169.6,8c-.3-2.7-.9-3.6-2.6-3.6-1.5,0-2.5,1.2-2.5,2.9,0,2.1.8,3.3,4,6.2,4.6,4.2,5.8,6.1,5.8,9.7,0,4.6-2.9,7.6-7.1,7.6-4.4,0-7.3-3.2-7.4-8L164,22c.1,3.1,1.2,4.6,3.2,4.6,1.7,0,2.7-1.3,2.7-3.3a5.1,5.1,0,0,0-1.2-3.2,20.63,20.63,0,0,0-3.5-3.5c-3.8-3.5-5.1-5.8-5.1-9.2,0-4.4,2.8-7.4,7-7.4,3.9,0,6.2,2.4,6.7,7.1Z"/><path class="cls-1" d="M57,43.7a36.69,36.69,0,0,0-.1-3.8,2.5,2.5,0,0,0-2.4-2.4,2.26,2.26,0,0,0-2.3,2A33.1,33.1,0,0,0,52,44v9.5a18.62,18.62,0,0,0,.3,4.7,2.31,2.31,0,0,0,2.2,1.7,2.52,2.52,0,0,0,2.4-2.5c.1-.8.1-3,.1-4.3h4.5v1.7c0,3.1-.2,4.2-1,5.8a6.4,6.4,0,0,1-5.9,3.5,6.32,6.32,0,0,1-5.2-2.4c-1.5-1.8-1.8-3.3-1.8-7.9V43.7c0-4.7.3-6.2,1.8-7.9a6.61,6.61,0,0,1,5.2-2.4,6.41,6.41,0,0,1,5.9,3.3c.8,1.5,1,2.5,1,5.4v1.6Z"/><path class="cls-1" d="M76.7,33.8V53.9c0,4.4-.4,6-1.8,7.8a6.83,6.83,0,0,1-10.4,0c-1.4-1.7-1.8-3.4-1.8-7.8V33.8h4.5V53.4a20.32,20.32,0,0,0,.3,4.8,2.3,2.3,0,0,0,4.5-.3,33.1,33.1,0,0,0,.2-4.5V33.8Z"/><polygon class="cls-1" points="89.9 63.6 78 63.6 78 33.8 82.5 33.8 82.5 59.4 89.9 59.4 89.9 63.6"/><polygon class="cls-1" points="95.3 63.6 90.9 63.6 90.9 37.9 86.1 37.9 86.1 33.8 100.2 33.8 100.2 37.9 95.3 37.9 95.3 63.6"/><path class="cls-1" d="M115.1,33.8V53.9c0,4.4-.4,6-1.8,7.8a6.83,6.83,0,0,1-10.4,0c-1.4-1.7-1.8-3.4-1.8-7.8V33.8h4.5V53.4a20.32,20.32,0,0,0,.3,4.8,2.3,2.3,0,0,0,4.5-.3,33.1,33.1,0,0,0,.2-4.5V33.8Z"/><path class="cls-1" d="M120.6,63.6h-4.5V33.8h6.3c5.2,0,7.5,2.7,7.5,8.6,0,3.8-.8,5.9-3,7.5l3.4,13.7h-4.7l-2.8-12.5h-2.1V63.6ZM122,47c1.5,0,2.1-.2,2.6-.9a8,8,0,0,0,.8-3.6,6.1,6.1,0,0,0-.9-3.7c-.4-.6-1-.8-2.5-.8h-1.4v9Z"/><path class="cls-1" d="M136.1,57l-1,6.6h-4.4l4.9-29.8h5.8l5.2,29.8H142L141,57Zm2.3-16-1.7,11.9h3.5Z"/><path class="cls-1" d="M152.1,33.8h6.3c5.1,0,7.5,2.7,7.5,8.4v13c0,5.7-2.4,8.4-7.5,8.4h-6.3Zm5.8,25.6a3.23,3.23,0,0,0,2.8-1.2c.6-.8.8-1.7.8-3.9V43c0-2.2-.2-3.1-.8-3.9a3.36,3.36,0,0,0-2.8-1.2h-1.4V59.4Z"/><polygon class="cls-1" points="179 37.9 171.3 37.9 171.3 46.1 176.8 46.1 176.8 50.2 171.3 50.2 171.3 59.4 179 59.4 179 63.6 166.8 63.6 166.8 33.8 179 33.8 179 37.9"/><polygon class="cls-1" points="52.2 96.7 46.5 66.9 51 66.9 54.5 85.9 57.5 66.9 61.9 66.9 56.8 96.7 52.2 96.7"/><path class="cls-1" d="M63.9,90.1l-1,6.6H58.5l4.9-29.8h5.8l5.2,29.8H69.8l-1-6.6Zm2.4-16L64.6,86h3.5Z"/><polygon class="cls-1" points="86.6 96.7 74.7 96.7 74.7 66.9 79.2 66.9 79.2 92.5 86.6 92.5 86.6 96.7"/><path class="cls-1" d="M100.7,87c0,4.4-.4,6-1.8,7.8a6.83,6.83,0,0,1-10.4,0c-1.4-1.7-1.8-3.4-1.8-7.8V76.6c0-4.4.4-6,1.8-7.8a6.83,6.83,0,0,1,10.4,0c1.4,1.7,1.8,3.3,1.8,7.8Zm-9.5-.5a20.32,20.32,0,0,0,.3,4.8A2.3,2.3,0,0,0,96,91a33.1,33.1,0,0,0,.2-4.5V77.1a19.71,19.71,0,0,0-.3-4.8,2.31,2.31,0,0,0-2.2-1.7,2.26,2.26,0,0,0-2.3,2,34.3,34.3,0,0,0-.2,4.5Z"/><path class="cls-1" d="M106.4,96.7h-4.5V66.9h6.3c5.2,0,7.5,2.7,7.5,8.6,0,3.8-.8,5.9-3,7.5l3.4,13.7h-4.7l-2.8-12.5h-2.1V96.7ZM107.8,80c1.5,0,2.1-.2,2.6-.9a8,8,0,0,0,.8-3.6,6.1,6.1,0,0,0-.9-3.7c-.4-.6-1-.8-2.5-.8h-1.4v9Z"/><path class="cls-1" d="M18.4,48.9h0A32.26,32.26,0,0,1,29.3,73.2,32.42,32.42,0,0,1,18.4,97.5h0Z"/><path class="cls-1" d="M0,10.6H0A43.68,43.68,0,0,1,14.7,43.3,43.68,43.68,0,0,1,0,76H0Z"/><path class="cls-1" d="M22.8,7.6A7.4,7.4,0,1,1,15.4.2a7.38,7.38,0,0,1,7.4,7.4"/><path class="cls-1" d="M31.4,8.5a25.17,25.17,0,0,0,0,45.4Z"/></g></g></svg>