<svg xmlns="http://www.w3.org/2000/svg" viewBox="0 0 260.91 83.8"><defs><style>.cls-1{fill:#fff;}</style></defs><g id="Camada_2" data-name="Camada 2"><g id="Camada_1-2" data-name="Camada 1"><path class="cls-1" d="M.91,18.2a6.52,6.52,0,0,0,6.6,4.7c3.9,0,6.3-2.6,6.3-5.9,0-7.1-10.6-5.8-10.6-11.5,0-2.1,1.5-3.9,4.3-3.9a5.08,5.08,0,0,1,4.6,2.9l1.3-.5A6,6,0,0,0,7.51.1c-3.7,0-5.9,2.4-5.9,5.3,0,7,10.6,5.3,10.6,11.6,0,2.7-2,4.3-4.6,4.3a5.11,5.11,0,0,1-5.3-3.7Z"/><path class="cls-1" d="M18.11,13.3c.3-4,3.1-6,6.1-6s5.8,1.9,6,6Zm-1.7,1.2c0,5.1,3.5,8.5,8.2,8.5a7.34,7.34,0,0,0,6.6-3.5l-1-.7a6.48,6.48,0,0,1-5.6,2.8c-3.9,0-6.6-2.5-6.6-6.8h13.8v-.7c0-4.6-3-8.1-7.6-8.1C20.11,5.9,16.41,9.2,16.41,14.5Z"/><path class="cls-1" d="M48.51,8.4a8,8,0,0,0-6-2.5,8.16,8.16,0,0,0-8.1,8.5c0,4.7,3.4,8.5,8.1,8.5a7.73,7.73,0,0,0,6-2.6l-.6-1.4a7.12,7.12,0,0,1-5.4,2.5,6.73,6.73,0,0,1-6.5-7c0-4,2.7-7,6.5-7a7.06,7.06,0,0,1,5.3,2.4Z"/><path class="cls-1" d="M58.51,5.9a5.22,5.22,0,0,0-5,3.3V6.3h-1.6V22.5h1.6V13.9c0-3.4,1.2-6.5,5-6.5Z"/><path class="cls-1" d="M62,13.3c.3-4,3.1-6,6.1-6s5.8,1.9,6,6Zm-1.7,1.2c0,5.1,3.5,8.5,8.2,8.5a7.34,7.34,0,0,0,6.6-3.5l-1-.7a6.48,6.48,0,0,1-5.6,2.8c-3.9,0-6.6-2.5-6.6-6.8h13.8v-.7c0-4.6-3-8.1-7.6-8.1C64,5.9,60.31,9.2,60.31,14.5Z"/><path class="cls-1" d="M79.31,6.3h-2V7.7h2V17.8c0,3.3,1.6,4.9,4.2,4.9a10.87,10.87,0,0,0,1.3-.1V21.2h-.7c-2.4,0-3.2-.9-3.2-4.4V7.7h3.8V6.3h-3.8V2.9h-1.6Z"/><path class="cls-1" d="M88.31,17.6c0-2.2,1.8-3.9,4.7-3.9s4.7,1.6,4.7,3.9-1.9,3.9-4.6,3.9c-3,0-4.8-1.8-4.8-3.9m-1.6,0c0,3,2.5,5.4,6.2,5.4a5.68,5.68,0,0,0,4.6-1.9l.3,1.5h1.3v-11c0-3.4-1.9-5.7-5.9-5.7a11.23,11.23,0,0,0-5.7,1.7l.7,1.2a9.26,9.26,0,0,1,5-1.5c2.7,0,4.4,1.5,4.4,4.2V14A6.37,6.37,0,0,0,93,12.3C89.31,12.3,86.71,14.5,86.71,17.6Z"/><path class="cls-1" d="M110.11,5.9a5.22,5.22,0,0,0-5,3.3V6.3h-1.6V22.5h1.6V13.9c0-3.4,1.2-6.5,5-6.5Z"/><path class="cls-1" d="M112.91,2a1.3,1.3,0,1,0,2.6,0,1.32,1.32,0,0,0-1.3-1.3,1.26,1.26,0,0,0-1.3,1.3m.5,20.5H115V6.3h-1.6Z"/><path class="cls-1" d="M120.11,17.6c0-2.2,1.8-3.9,4.7-3.9s4.7,1.6,4.7,3.9-1.9,3.9-4.6,3.9c-3,0-4.8-1.8-4.8-3.9m-1.6,0c0,3,2.5,5.4,6.2,5.4a5.68,5.68,0,0,0,4.6-1.9l.3,1.5h1.3v-11c0-3.4-1.9-5.7-5.9-5.7a11.23,11.23,0,0,0-5.7,1.7l.7,1.2a9.26,9.26,0,0,1,5-1.5c2.7,0,4.4,1.5,4.4,4.2V14a6.37,6.37,0,0,0-4.6-1.7C121.11,12.3,118.51,14.5,118.51,17.6Z"/><path class="cls-1" d="M156.31,14.5c0,3.8-2.4,7-6.1,7-3.5,0-6.2-2.7-6.2-7,0-4.1,2.6-7.1,6.1-7.1,3.3,0,6.2,2.6,6.2,7.1M157.81,0h-1.6V9.5A7,7,0,0,0,150,6c-4.6,0-7.7,3.6-7.7,8.5s3.3,8.5,7.9,8.5a6.92,6.92,0,0,0,6-3.4v3h1.6Z"/><path class="cls-1" d="M163,13.3c.3-4,3.1-6,6.1-6s5.8,1.9,6,6Zm-1.7,1.2c0,5.1,3.5,8.5,8.2,8.5a7.47,7.47,0,0,0,6.6-3.5l-1-.7a6.48,6.48,0,0,1-5.6,2.8c-3.9,0-6.6-2.5-6.6-6.8h13.8v-.7c0-4.6-3-8.1-7.6-8.1C165,5.9,161.31,9.2,161.31,14.5Z"/><path class="cls-1" d="M12.11,53.4a11.47,11.47,0,0,0,6.3-1.8L16.91,47a8.21,8.21,0,0,1-4.7,1.5c-3.9,0-6-2.9-6-6.2a5.74,5.74,0,0,1,6-6.1,8.4,8.4,0,0,1,4.6,1.5l1.5-4.6a11.12,11.12,0,0,0-6.2-1.8,10.77,10.77,0,0,0-11.2,11c0,6.3,4.4,11.1,11.2,11.1"/><path class="cls-1" d="M25.61,37h-5.1v8.8c0,3.3.5,7.5,5.5,7.5a4.84,4.84,0,0,0,4-2v1.6h5V37h-5.1v9.5a2.13,2.13,0,0,1-2.2,2.3,2.05,2.05,0,0,1-2.1-2.3V37Z"/><rect class="cls-1" x="37.81" y="31" width="5.1" height="22"/><path class="cls-1" d="M51.31,33.6h-5.1V37h-1.5v4.1h1.5v5.6c0,4.7,2.2,6.5,6,6.5a6.68,6.68,0,0,0,1.9-.2V48.7h-.8c-1,0-2-.3-2-1.7V41.1H54V37h-2.7V33.6Z"/><path class="cls-1" d="M61.41,37h-5.1v8.8c0,3.3.5,7.5,5.5,7.5a4.84,4.84,0,0,0,4-2v1.6h5V37h-5.1v9.5a2.13,2.13,0,0,1-2.2,2.3,2.05,2.05,0,0,1-2.1-2.3V37Z"/><path class="cls-1" d="M82.71,36.6a4.43,4.43,0,0,0-4.2,2.5V37h-5V52.9h5.1v-7c0-2.4.8-4.2,3.3-4.2a1.72,1.72,0,0,1,.8.1V36.6Z"/><path class="cls-1" d="M89,47.8c0-1,.9-1.7,2.1-1.7s2.2.6,2.2,1.7-.9,1.6-2.1,1.6S89,48.9,89,47.8m-5.1.2c0,3.5,2.8,5.4,5.9,5.4a4.92,4.92,0,0,0,3.6-1.3l.3.9h4.5V43.1c0-3.6-1.4-6.5-6.9-6.5a11.92,11.92,0,0,0-6.5,2l1.9,3.4a9.1,9.1,0,0,1,4-1c1.6,0,2.4.8,2.4,1.7v.6a9.31,9.31,0,0,0-3.1-.6C86.41,42.7,83.91,44.8,83.91,48Z"/><polygon class="cls-1" points="141.81 53 141.81 48.3 135.51 48.3 135.51 44.5 140.71 44.5 140.71 39.9 135.51 39.9 135.51 36.4 141.61 36.4 141.61 31.7 130.31 31.7 130.31 53 141.81 53"/><path class="cls-1" d="M152.71,48.9a3.73,3.73,0,0,1-3.9-3.9,3.54,3.54,0,0,1,3.7-3.8,5.26,5.26,0,0,1,3.2,1.2l1.4-4.3a8,8,0,0,0-4.7-1.5,8.25,8.25,0,0,0-8.6,8.4c0,4.9,3.6,8.4,8.7,8.4a8.73,8.73,0,0,0,4.7-1.4l-1.3-4.2a5.86,5.86,0,0,1-3.2,1.1"/><path class="cls-1" d="M163.41,45a3.66,3.66,0,1,1,7.3,0,3.68,3.68,0,0,1-3.7,3.9c-2.1,0-3.6-1.5-3.6-3.9m-5.1,0c0,4.8,3.6,8.3,8.7,8.3a8.34,8.34,0,0,0,8.7-8.4c0-4.8-3.6-8.4-8.7-8.4S158.31,40.2,158.31,45Z"/><path class="cls-1" d="M187.21,53h5.1V44.2c0-3.3-.5-7.5-5.5-7.5a4.84,4.84,0,0,0-4,2V37.1h-5V53h5.1V43.5a2.13,2.13,0,0,1,2.2-2.3,2.05,2.05,0,0,1,2.1,2.3V53Z"/><path class="cls-1" d="M199.31,45a3.66,3.66,0,1,1,7.3,0,3.68,3.68,0,0,1-3.7,3.9c-2.1,0-3.6-1.5-3.6-3.9m-5.1,0c0,4.8,3.6,8.3,8.7,8.3a8.34,8.34,0,0,0,8.7-8.4c0-4.8-3.6-8.4-8.7-8.4S194.21,40.2,194.21,45Z"/><path class="cls-1" d="M227.71,43.5c0-1.4.8-2.3,1.9-2.3s1.9.9,1.9,2.3V53h5.1V42.4c0-3.4-1.7-5.7-5.4-5.7a5.42,5.42,0,0,0-4.5,2.1,4.56,4.56,0,0,0-4.1-2.1,4.36,4.36,0,0,0-3.9,2V37.1h-5V53h5.1V43.5c0-1.5.8-2.3,1.9-2.3s1.9.9,1.9,2.3V53h5.1Z"/><path class="cls-1" d="M242,36a2.75,2.75,0,1,0-2.8-2.7A2.6,2.6,0,0,0,242,36m2.5,1h-5.1V52.9h5.1Z"/><path class="cls-1" d="M251.71,47.8c0-1,.9-1.7,2.1-1.7s2.2.6,2.2,1.7-.9,1.6-2.1,1.6-2.2-.5-2.2-1.6m-5.1.2c0,3.5,2.8,5.4,5.9,5.4a4.92,4.92,0,0,0,3.6-1.3l.3.9h4.5V43.1c0-3.6-1.4-6.5-6.9-6.5a11.92,11.92,0,0,0-6.5,2l1.9,3.4a9.1,9.1,0,0,1,4-1c1.6,0,2.4.8,2.4,1.7v.6a9.31,9.31,0,0,0-3.1-.6C249,42.7,246.61,44.8,246.61,48Z"/><path class="cls-1" d="M114.11,40.7a2.48,2.48,0,0,1,2.6,2.4h-5.2a2.55,2.55,0,0,1,2.6-2.4m7.7,5.6v-1c0-5.4-2.8-8.7-7.8-8.7-4.7,0-7.8,3.7-7.8,8.4s3.2,8.3,8.5,8.3a7.9,7.9,0,0,0,6.8-3.5l-3.3-2.6a3.92,3.92,0,0,1-3.3,1.7,3.23,3.23,0,0,1-3.4-2.6Z"/><path class="cls-1" d="M11.11,83.8a11.47,11.47,0,0,0,6.3-1.8l-1.5-4.6a8.13,8.13,0,0,1-4.6,1.5c-3.9,0-6-2.9-6-6.2a5.74,5.74,0,0,1,6-6.1,8.4,8.4,0,0,1,4.6,1.5l1.5-4.6a11.12,11.12,0,0,0-6.2-1.8A10.77,10.77,0,0,0,0,72.7c-.2,6.2,4.2,11.1,11.1,11.1"/><path class="cls-1" d="M28.81,67a4.43,4.43,0,0,0-4.2,2.5V67.4h-5V83.3h5.1v-7c0-2.4.8-4.2,3.3-4.2a1.72,1.72,0,0,1,.8.1V67Z"/><path class="cls-1" d="M33.41,66.4a2.8,2.8,0,0,0,2.9-2.7,2.85,2.85,0,0,0-5.7,0,2.65,2.65,0,0,0,2.8,2.7m2.6,1h-5.1V83.3H36Z"/><path class="cls-1" d="M43.11,78.2c0-1,.9-1.7,2.1-1.7s2.2.6,2.2,1.7-.9,1.6-2.1,1.6-2.2-.5-2.2-1.6m-5,.2c0,3.5,2.8,5.3,5.9,5.3a4.92,4.92,0,0,0,3.6-1.3l.3.9h4.5V73.4c0-3.6-1.4-6.5-6.9-6.5a11.15,11.15,0,0,0-6.5,2l1.9,3.4a9.1,9.1,0,0,1,4-1c1.6,0,2.4.8,2.4,1.7v.6a9.31,9.31,0,0,0-3.1-.6C40.51,73.1,38.11,75.2,38.11,78.4Z"/><path class="cls-1" d="M60.71,64h-5.1v3.4h-1.5v4.1h1.5v5.6c0,4.7,2.2,6.5,6,6.5a6.68,6.68,0,0,0,1.9-.2V79.1h-.8c-1,0-2-.3-2-1.7V71.5h2.7V67.4h-2.7V64Z"/><path class="cls-1" d="M68.41,66.4a2.8,2.8,0,0,0,2.9-2.7,2.76,2.76,0,0,0-2.9-2.8,2.68,2.68,0,0,0-2.8,2.8,2.6,2.6,0,0,0,2.8,2.7m2.6,1h-5.1V83.3H71Z"/><polygon class="cls-1" points="78.01 67.4 72.51 67.4 78.01 83.4 83.91 83.4 89.31 67.4 84.01 67.4 81.01 78 78.01 67.4"/><path class="cls-1" d="M95.11,78.2c0-1,.9-1.7,2.1-1.7s2.2.6,2.2,1.7-.9,1.6-2.1,1.6-2.2-.5-2.2-1.6m-5.1.2c0,3.5,2.8,5.3,5.9,5.3a4.92,4.92,0,0,0,3.6-1.3l.3.9h4.5V73.4c0-3.6-1.4-6.5-6.9-6.5a11.15,11.15,0,0,0-6.5,2l1.9,3.4a9.1,9.1,0,0,1,4-1c1.6,0,2.4.8,2.4,1.7v.6a9.31,9.31,0,0,0-3.1-.6C92.51,73.1,90,75.2,90,78.4Z"/></g></g></svg>